<?xml version="1.0" encoding="UTF-8"?>
<svg enable-background="new 0 0 1000 1000" version="1.1" viewBox="0 0 1e3 1e3" xml:space="preserve" xmlns="http://www.w3.org/2000/svg">
<style type="text/css">
	.st0{fill:#3197D6;}
	.st1{fill:#EEF2F4;}
	.st2{opacity:0.64;fill:#68CCE9;}
	.st3{fill:#282323;stroke:#000000;stroke-width:4;stroke-linecap:round;stroke-linejoin:round;stroke-miterlimit:10;}
	.st4{fill:#442C2A;}
	.st5{opacity:0.37;fill:#442C2A;}
	.st6{fill:none;stroke:#000000;stroke-width:4;stroke-linecap:round;stroke-linejoin:round;stroke-miterlimit:10;}
	.st7{fill:#151E28;}
	.st8{fill:#2A3749;}
	.st9{opacity:0.67;fill:#151E28;}
	.st10{fill:#9B2121;}
	.st11{fill:#F1534D;}
	.st12{opacity:0.24;}
	.st13{fill:#F46262;}
	.st14{fill:#FFC897;}
	.st15{fill:#E5A973;}
	.st16{fill:#607691;}
	.st17{fill:#B5B5B5;}
	.st18{opacity:0.21;fill:#7E7E7E;}
	.st19{opacity:0.66;fill:#B5B5B5;}
	.st20{fill:none;stroke:#000000;stroke-width:6;stroke-linecap:round;stroke-linejoin:round;stroke-miterlimit:10;}
	.st21{fill:#7E7E7E;}
	.st22{fill:#231A17;}
	.st23{opacity:0.34;}
	.st24{fill:none;stroke:#000000;stroke-width:3;stroke-linecap:round;stroke-linejoin:round;stroke-miterlimit:10;}
	.st25{fill:none;stroke:#000000;stroke-width:2;stroke-linecap:round;stroke-linejoin:round;stroke-miterlimit:10;}
	.st26{opacity:0.64;}
	.st27{fill:#68CCE9;}
	.st28{fill:#FFFFFF;}
</style>

	<ellipse class="st2" cx="492.2" cy="720.8" rx="235.1" ry="47.3"/>
	
		<path class="st3" d="m379.5 713.2c3.3-10.7 13.4-16.4 29.8-21.2 10.4-3 23.6-4.4 44.3-8.6 10.1-2 17.2-6 17.2-6v11.5s-68.5 13.5-79.2 31.2c-5.2 8.7-3.6 30 20.9 32.2-7.5 1.1-19.8-0.8-26.4-7.5-8.2-8.3-10.4-19.4-6.6-31.6z"/>
		<path class="st4" d="m470.8 688.9s-41 7.6-62.9 17c-19.2 8.3-18.6 16.9-19.1 25.7-0.3 5.1 3.3 17.7 17.9 19.9 17.4 2.6 37.9-0.2 64.1-16.9v-45.7z"/>
		<path class="st5" d="m388.8 731.6c0.4-7.1 0.1-14.1 10.1-20.9-0.4 2.5-0.5 4.9-0.6 7.4-0.3 5.1 12-1.5 26.6 0.6 15.2 2.3 24.2 19.7 45.9 8v7.8c-26.2 16.7-46.7 19.4-64.1 16.9-14.6-2.1-18.2-14.8-17.9-19.8z"/>
		<path class="st6" d="m470.8 688.9s-41 7.6-62.9 17c-19.2 8.3-18.6 16.9-19.1 25.7-0.3 5.1 3.3 17.7 17.9 19.9 17.4 2.6 37.9-0.2 64.1-16.9v-45.7z"/>
		<path class="st6" d="m432.8 712.4c-3.3 1.8-2.5 19.3 5.5 21.7"/>
		<path class="st6" d="m445.3 711.1c-3.4 4.8-1 16.1 5.1 18.9"/>
		<path class="st6" d="m456.8 707.1c-3.4 4.8-1 16.1 5.1 18.9"/>
	
	<path class="st7" d="m574.8 655.3c-21.6 15-52.3 23.6-84.4 23.6-32 0-62.8-8.6-84.4-23.6-9.9-6.9-26.5-21.3-26.5-40.5s16.6-33.6 26.5-40.5c21.6-15 52.3-23.6 84.4-23.6 32 0 62.8 8.6 84.4 23.6 9.9 6.9 26.5 21.3 26.5 40.5s-16.6 33.6-26.5 40.5z"/>
	<path class="st8" d="m673.7 630.8c-0.4 2-0.8 3.9-1.4 5.9-15.6 56.9-90.8 100.1-181.3 100.1-90.7 0-166.1-43.4-181.4-100.5-0.4-1.6-0.8-3.2-1.1-4.8-0.4-3-0.3-6 0.3-9 3.7-16.8 24.1-26.5 45.6-21.7 14.1 3.1 25.1 11.8 30 22.1 0.5 2.2 1.3 4.4 2.2 6.5 5.2 12 15.6 21 22.6 26 20.9 15 50.8 23.6 81.8 23.6 31.1 0 60.9-8.6 81.8-23.6 7.1-5.1 17.6-14.2 22.7-26.2 0.8-1.9 1.5-4 2-6 4.8-10.4 15.9-19.1 30.1-22.3 21.5-4.8 41.9 5 45.6 21.7 0.7 2.6 0.8 5.4 0.5 8.2z"/>
	<path class="st9" d="m673.2 622.4c-0.1-0.5-0.2-0.9-0.4-1.4-0.3 1.6-0.7 3.3-1.2 4.9-15.4 56.9-90.7 100.1-181.1 100.1-90.7 0-166.1-43.4-181.4-100.5-0.2-0.6-0.3-1.2-0.5-1.9-0.4 2.6-0.5 5.2-0.1 7.7 0.3 1.6 0.7 3.2 1.1 4.8 15.3 57.1 90.7 100.5 181.4 100.5 90.5 0 165.7-43.2 181.3-100.1 0.5-1.9 1-3.9 1.4-5.9 0.3-2.6 0.2-5.4-0.5-8.2z"/>
	<path class="st6" d="m673.7 630.8c-0.4 2-0.8 3.9-1.4 5.9-15.6 56.9-90.8 100.1-181.3 100.1-90.7 0-166.1-43.4-181.4-100.5-0.4-1.6-0.8-3.2-1.1-4.8-0.4-3-0.3-6 0.3-9 3.7-16.8 24.1-26.5 45.6-21.7 14.1 3.1 25.1 11.8 30 22.1 0.5 2.2 1.3 4.4 2.2 6.5 5.2 12 15.6 21 22.6 26 20.9 15 50.8 23.6 81.8 23.6 31.1 0 60.9-8.6 81.8-23.6 7.1-5.1 17.6-14.2 22.7-26.2 0.8-1.9 1.5-4 2-6 4.8-10.4 15.9-19.1 30.1-22.3 21.5-4.8 41.9 5 45.6 21.7 0.7 2.6 0.8 5.4 0.5 8.2z"/>
	<ellipse class="st10" cx="492.2" cy="617.8" rx="90.1" ry="30.6"/>
	<ellipse class="st6" cx="492.2" cy="617.8" rx="90.1" ry="30.6"/>
	
		<path class="st11" d="m594.8 551h-207.6c-15.9 0-28.2-13.9-26.2-29.7l9.2-73.5c2.6-21 20.4-36.7 41.6-36.7h158.6c21.1 0 38.9 15.7 41.6 36.7l9.2 73.5c1.8 15.8-10.5 29.7-26.4 29.7z"/>
		<path class="st6" d="m594.8 551h-207.6c-15.9 0-28.2-13.9-26.2-29.7l9.2-73.5c2.6-21 20.4-36.7 41.6-36.7h158.6c21.1 0 38.9 15.7 41.6 36.7l9.2 73.5c1.8 15.8-10.5 29.7-26.4 29.7z"/>
		<path class="st6" d="m415 473.2"/>
		
			<line class="st6" x1="409.7" x2="407.7" y1="473.2" y2="498.3"/>
			<line class="st6" x1="573.8" x2="575.8" y1="473.2" y2="498.3"/>
		
	
	
		<path class="st11" d="m594.8 551h-207.6c-15.9 0-28.2-13.9-26.2-29.7l9.2-73.5c2.6-21 20.4-36.7 41.6-36.7h158.6c21.1 0 38.9 15.7 41.6 36.7l9.2 73.5c1.8 15.8-10.5 29.7-26.4 29.7z"/>
		<g class="st12">
			<path class="st10" d="m370.1 455.6c2.6-21 20.4-36.7 41.6-36.7h158.6c21.1 0 38.9 15.7 41.6 36.7l9.1 72.9c0.3-2.3 0.4-4.7 0.1-7.2l-9.2-73.5c-2.6-21-20.4-36.7-41.6-36.7h-158.6c-21.1 0-38.9 15.7-41.6 36.7l-9.2 73.5c-0.3 2.4-0.3 4.8 0.1 7.2l9.1-72.9z"/>
			<path class="st10" d="m420.9 418.9s12.3 2.2 13.3 9c0.8 5.5 0.7 9.1 2.8 11.3s7 6.7 16.9 6.7c-5.5-5.5-5.6-24.8-7.1-24.8-1.4 0-5-9.6-5-9.6l-4.8-2.2c0.1 0-17.6 2.2-16.1 9.6z"/>
			<path class="st10" d="m552.3 418.9s-12.3 2.2-13.3 9c-0.8 5.5-0.7 9.1-2.8 11.3-2.1 2.1-7 6.7-16.9 6.7 5.5-5.5 5.6-24.8 7.1-24.8 1.4 0 5-9.6 5-9.6l4.8-2.2c-0.1 0 17.6 2.2 16.1 9.6z"/>
		</g>
		<path class="st6" d="m594.8 551h-207.6c-15.9 0-28.2-13.9-26.2-29.7l9.2-73.5c2.6-21 20.4-36.7 41.6-36.7h158.6c21.1 0 38.9 15.7 41.6 36.7l9.2 73.5c1.8 15.8-10.5 29.7-26.4 29.7z"/>
		<path class="st6" d="m415 473.2"/>
		
			<line class="st6" x1="409.7" x2="407.7" y1="473.2" y2="498.3"/>
			<line class="st6" x1="573.8" x2="575.8" y1="473.2" y2="498.3"/>
		
	
	
		<path class="st10" d="m464.3 369.3-32.9-1.7-15.4 1.7s-10.3 7.7-10.3 9.8 1 19.2 1 19.2 24.3 3.3 26.9 5.8 18 16.9 18 16.9l14.9-5.8 7.8-20.8-10-25.1z"/>
		<path class="st11" d="m458.5 356.6h-38c-15.3 0-27.8 12.4-27.8 27.8 0 15.3 12.4 27.8 27.8 27.8h5c8.1 0 14.6 6.5 14.6 14.6v1.5c0 9.7 7.9 17.6 17.6 17.6v-18c0.2 0 0.4 0.2 0.4 0.4v-1.5c0-18-14.6-32.6-32.6-32.6h-5c-5.4 0-9.8-4.4-9.8-9.8s4.4-9.8 9.8-9.8h38v-18z"/>
		<path class="st6" d="m456.2 415.5c-4.6-12.4-16.6-21.4-30.6-21.4h-5c-5.4 0-9.8-4.4-9.8-9.8s4.4-9.8 9.8-9.8h38v-18h-38c-15.3 0-27.8 12.4-27.8 27.8 0 15.3 12.4 27.8 27.8 27.8h5c8.1 0 14.6 6.5 14.6 14.6v1.5c0 9.7 7.9 17.6 17.6 17.6"/>
	
	
		<path class="st10" d="m507.8 369.3 32.9-1.7 15.4 1.7s10.3 7.7 10.3 9.8-1 19.2-1 19.2-24.3 3.3-26.9 5.8c-2.6 2.6-18 16.9-18 16.9l-14.9-5.8-7.8-20.8 10-25.1z"/>
		<path class="st11" d="m513.6 356.6h38c15.3 0 27.8 12.4 27.8 27.8 0 15.3-12.4 27.8-27.8 27.8h-5c-8.1 0-14.6 6.5-14.6 14.6v1.5c0 9.7-7.9 17.6-17.6 17.6v-18c-0.2 0-0.4 0.2-0.4 0.4v-1.5c0-18 14.6-32.6 32.6-32.6h5c5.4 0 9.8-4.4 9.8-9.8s-4.4-9.8-9.8-9.8h-38v-18z"/>
		<path class="st6" d="m516 415.5c4.6-12.4 16.6-21.4 30.6-21.4h5c5.4 0 9.8-4.4 9.8-9.8s-4.4-9.8-9.8-9.8h-38v-18h38c15.3 0 27.8 12.4 27.8 27.8 0 15.3-12.4 27.8-27.8 27.8h-5c-8.1 0-14.6 6.5-14.6 14.6v1.5c0 9.7-7.9 17.6-17.6 17.6"/>
	
	<circle class="st13" cx="487.9" cy="392.7" r="39"/>
	<path class="st11" d="m450.6 381.2c10.8 6.9 23.6 11 37.3 11s26.5-4 37.3-11c-4.9-16-19.7-27.6-37.3-27.6-17.5 0.1-32.4 11.7-37.3 27.6z"/>
	<circle class="st6" cx="487.9" cy="392.7" r="39"/>
	<path class="st14" d="m487.9 415.3c-12.7 0-23-10.3-23-23v-17.2c0-3.2 2.6-5.8 5.8-5.8h34.5c3.2 0 5.8 2.6 5.8 5.8v17.2c-0.1 12.7-10.4 23-23.1 23z"/>
	<path class="st15" d="m505.2 369.3h-34.5c-3.2 0-5.8 2.8-5.8 6.2v14.1c7.2 2.7 14.9 4.2 23 4.2s15.8-1.5 23-4.2v-14.1c0-3.4-2.6-6.2-5.7-6.2z"/>
	<path class="st6" d="m487.9 415.3c-12.7 0-23-10.3-23-23v-17.2c0-3.2 2.6-5.8 5.8-5.8h34.5c3.2 0 5.8 2.6 5.8 5.8v17.2c-0.1 12.7-10.4 23-23.1 23z"/>
	<path class="st6" d="m465.7 404.2"/>
	<rect class="st16" x="491.4" y="674.4" width="21.4" height="68.3"/>
	<rect class="st6" x="491.4" y="674.4" width="21.4" height="68.3"/>
	<path class="st6" d="m386.5 629.2c-0.9-2.1-1.6-4.2-2.2-6.5 1.1 2.2 1.8 4.3 2.2 6.5z"/>
	<path class="st6" d="m595.6 629c0.4-2.1 1.1-4.1 2-6-0.5 2.1-1.2 4.1-2 6z"/>
	
		<path class="st17" d="m595.3 624.2h-208.5c-7.4 0-13.7-5.5-14.7-12.9l-13-101.8c-1.1-8.8 5.8-16.7 14.7-16.7h234.5c8.9 0 15.8 7.8 14.7 16.7l-13 101.8c-1 7.3-7.3 12.9-14.7 12.9z"/>
		<path class="st18" d="m609.9 604.9c-0.9 7.4-7.2 12.9-14.7 12.9h-208.4c-7.4 0-13.7-5.5-14.7-12.9l-12.8-100.3c-0.3 1.6-0.4 3.2-0.2 4.9l13 101.8c0.9 7.4 7.2 12.9 14.7 12.9h208.5c7.4 0 13.7-5.5 14.7-12.9l13-101.8c0.2-1.7 0.1-3.3-0.2-4.9l-12.9 100.3z"/>
		<path class="st18" d="m359.2 510.4c1.2-6.8 7.2-12.2 14.5-12.2h234.5c7.4 0 13.3 5.3 14.5 12.2l0.1-1c1.1-8.8-5.8-16.7-14.7-16.7h-234.3c-8.9 0-15.8 7.8-14.7 16.7l0.1 1z"/>
		<path class="st6" d="m595.3 624.2h-208.5c-7.4 0-13.7-5.5-14.7-12.9l-13-101.8c-1.1-8.8 5.8-16.7 14.7-16.7h234.5c8.9 0 15.8 7.8 14.7 16.7l-13 101.8c-1 7.3-7.3 12.9-14.7 12.9z"/>
		<path class="st19" d="m500.9 552.3c-4.5 0-8.1-3.6-8.1-8.1 0-0.3 0-0.6 0.1-0.9-0.8-0.1-1.6-0.2-2.4-0.2-7.3 0-13.3 6-13.3 13.3s6 13.3 13.3 13.3 13.3-6 13.3-13.3c0-1.5-0.3-3-0.7-4.4-0.7 0.1-1.4 0.3-2.2 0.3z"/>
	
	
		<path class="st3" d="m604.1 713.2c-3.3-10.7-13.4-16.4-29.8-21.2-10.4-3-23.6-4.4-44.3-8.6-10.1-2-17.2-6-17.2-6v11.5s68.5 13.5 79.2 31.2c5.2 8.7 3.6 30-20.9 32.2 7.5 1.1 19.8-0.8 26.4-7.5 8.2-8.3 10.4-19.4 6.6-31.6z"/>
		<path class="st4" d="m512.8 688.9s41 7.6 62.9 17c19.2 8.3 18.6 16.9 19.1 25.7 0.3 5.1-3.3 17.7-17.9 19.9-17.4 2.6-37.9-0.2-64.1-16.9v-45.7z"/>
		<path class="st5" d="m594.8 731.6c-0.4-7.1-0.1-14.1-10.1-20.9 0.4 2.5 0.5 4.9 0.6 7.4 0.3 5.1-3.3 17.7-17.9 19.9-15.2 2.3-32.9 0.4-54.6-11.3v7.8c26.2 16.7 46.7 19.4 64.1 16.9 14.7-2.1 18.2-14.8 17.9-19.8z"/>
		<path class="st6" d="m512.8 688.9s41 7.6 62.9 17c19.2 8.3 18.6 16.9 19.1 25.7 0.3 5.1-3.3 17.7-17.9 19.9-17.4 2.6-37.9-0.2-64.1-16.9v-45.7z"/>
		<path class="st6" d="m550.8 712.4c3.3 1.8 2.5 19.3-5.5 21.7"/>
		<path class="st6" d="m538.3 711.1c3.4 4.8 1 16.1-5.1 18.9"/>
		<path class="st6" d="m526.8 707.1c3.4 4.8 1 16.1-5.1 18.9"/>
	
	<line class="st20" x1="452.8" x2="452.8" y1="435.7" y2="488.9"/>
	<line class="st20" x1="520.3" x2="520.3" y1="435.7" y2="473.2"/>
	<circle cx="520.3" cy="476.2" r="8.3"/>
	<circle class="st21" cx="520.3" cy="475.2" r="3.4"/>
	
		<path class="st14" d="m487.9 386.2c-34.8 0-63.1-28.2-63.1-63.1v-73.2h126.2v73.2c0 34.8-28.2 63.1-63.1 63.1z"/>
		<path class="st15" d="m487.9 377.5c-34.8 0-63.1-28.2-63.1-63.1v8.7c0 34.8 28.2 63.1 63.1 63.1 34.8 0 63.1-28.2 63.1-63.1v-8.7c0 34.8-28.2 63.1-63.1 63.1z"/>
		<path class="st6" d="m487.9 386.2c-34.8 0-63.1-28.2-63.1-63.1v-73.2h126.2v73.2c0 34.8-28.2 63.1-63.1 63.1z"/>
		<path class="st15" d="m551.5 257.2c-0.2-3.4-0.4-6.9-0.5-10.3-42 2-84.2 1.7-126.1-2-0.3 3.9-0.5 7.8-0.8 11.7 1.9 1.7 3.9 3.5 5.8 5.2 1.6 0.8 3.7 1.9 5.6 2.9 8.4 4.4 20.1 10 31.3 12.2 4.1 0.8 8.4 1.2 12.8 1.1 18.9-0.2 34.8-7.7 41.5-10.8 1-0.5 1.8-0.9 2.3-1 0.4-0.2 0.8-0.3 1.4-0.3 1.2 0 2.6 0.3 4.3 0.6 2.2 0.5 4.8 1 7.7 0.8 3.3-0.2 6.3-1.2 9.2-3.1 1.7-2.4 3.6-4.7 5.5-7z"/>
		<path class="st22" d="m521.1 219.2s-50.5-33.3-92.3 3.9c-7.8 6.9-10.9 16.8-10.9 25.9v48.2h7v-35c0-2.6 1.8-4.6 4-4.6 3.6 0 23.1 10.4 39.6 13.3 24.9 4.3 47.6-7.2 52.5-8.9 8.4-3 15.2 7.4 25.8-4.3h0.4c2.2 0 4 2.1 4 4.6v35h7v-48c-0.2-11.8-13.8-41.4-37.1-30.1z"/>
		<g class="st23">
			<rect class="st22" x="417.8" y="290.6" width="7" height="6.6"/>
			<rect class="st22" x="551" y="290.6" width="7" height="6.6"/>
		</g>
		<path class="st6" d="m521.1 219.2s-50.5-33.3-92.3 3.9c-7.8 6.9-10.9 16.8-10.9 25.9v48.2h7v-35c0-2.6 1.8-4.6 4-4.6 3.6 0 23.1 10.4 39.6 13.3 24.9 4.3 47.6-7.2 52.5-8.9 8.4-3 15.2 7.4 25.8-4.3h0.4c2.2 0 4 2.1 4 4.6v35h7v-48c-0.2-11.8-13.8-41.4-37.1-30.1z"/>
		<path class="st6" d="m478.4 251.7s-54.2 3.5-65.7-25.3"/>
		<path class="st6" d="m486.1 244.8s-52.2-3.3-65.8-32.1"/>
		<path class="st14" d="m551 289.4v32.8c7 0 12.6-7.3 12.6-16.4s-5.6-16.4-12.6-16.4z"/>
		<path class="st15" d="m551 291.2v29.1c4.1-2.7 6.9-8.2 6.9-14.6 0-6.3-2.8-11.8-6.9-14.5z"/>
		<path class="st6" d="m551 289.4v32.8c7 0 12.6-7.3 12.6-16.4s-5.6-16.4-12.6-16.4z"/>
		<path class="st14" d="m424.9 289.4v32.8c-7 0-12.6-7.3-12.6-16.4-0.1-9.1 5.6-16.4 12.6-16.4z"/>
		<path class="st15" d="m424.9 291.8c-3.6 2.9-6.1 8.1-6.1 14s2.4 11.1 6.1 14v-28z"/>
		<path class="st6" d="m424.9 289.4v32.8c-7 0-12.6-7.3-12.6-16.4-0.1-9.1 5.6-16.4 12.6-16.4z"/>
		<path class="st6" d="m485.3 316.1-4.2 13.7c0 1.5 4.9 0.3 9.9 1.5"/>
		<path class="st24" d="m508.9 341.7c1.5 10.4-11.9 19.6-22.4 17.7"/>
		
			<ellipse class="st25" cx="465.2" cy="300" rx="4.2" ry="4.5"/>
			<ellipse cx="465.2" cy="300" rx="4.2" ry="4.5"/>
			<path class="st24" d="m450.7 290.5c2.1-2.5 7-4.2 12.8-4.2 4.6 0 8.6 1.1 11.1 2.8"/>
		
		
			<ellipse class="st25" cx="511.2" cy="300" rx="4.2" ry="4.5"/>
			<ellipse cx="511.2" cy="300" rx="4.2" ry="4.5"/>
			<path class="st24" d="m525.7 290.5c-2.1-2.5-7-4.2-12.8-4.2-4.6 0-8.6 1.1-11.1 2.8"/>
		
	

</svg>
